<svg width="1195" height="635" viewBox="0 0 1195 635" fill="none" xmlns="http://www.w3.org/2000/svg">
<g filter="url(#filter0_f_11_142)">
<ellipse cx="506.352" cy="264.156" rx="194.089" ry="177.039" transform="rotate(-174.066 506.352 264.156)" fill="#009783"/>
</g>
<g filter="url(#filter1_f_11_142)">
<ellipse cx="892.373" cy="369.171" rx="185.231" ry="119.892" transform="rotate(-163.525 892.373 369.171)" fill="#0AFFE7"/>
</g>
<g filter="url(#filter2_f_11_142)">
<path d="M544.254 377.301C592.802 382.347 618.306 358.903 621.925 324.091C629.475 251.45 203.618 181.079 132.426 234.911C80.106 274.474 79.7054 337.798 127.664 365.284C181.862 396.345 178.588 401.533 236.472 387.449C284.769 375.698 340.155 354.802 392.787 346.129C442.05 338.012 501.132 372.819 544.254 377.301Z" fill="#0B544A"/>
</g>
<g filter="url(#filter3_f_11_142)">
<path d="M650.654 361.874C807.86 386.647 841.062 540.659 896.478 542.134C966.139 543.987 967.785 402.934 917.087 343.856C857.328 274.218 544.118 345.087 650.654 361.874Z" fill="#8DCEC3"/>
</g>
<g filter="url(#filter4_f_11_142)">
<ellipse cx="654.268" cy="285.192" rx="185.231" ry="119.892" transform="rotate(-163.525 654.268 285.192)" fill="#0B544A"/>
</g>
<defs>
<filter id="filter0_f_11_142" x="226.136" y="0.622238" width="560.432" height="527.067" filterUnits="userSpaceOnUse" color-interpolation-filters="sRGB">
<feFlood flood-opacity="0" result="BackgroundImageFix"/>
<feBlend mode="normal" in="SourceGraphic" in2="BackgroundImageFix" result="shape"/>
<feGaussianBlur stdDeviation="43.1439" result="effect1_foregroundBlur_11_142"/>
</filter>
<filter id="filter1_f_11_142" x="590.686" y="121.935" width="603.374" height="494.472" filterUnits="userSpaceOnUse" color-interpolation-filters="sRGB">
<feFlood flood-opacity="0" result="BackgroundImageFix"/>
<feBlend mode="normal" in="SourceGraphic" in2="BackgroundImageFix" result="shape"/>
<feGaussianBlur stdDeviation="60.4015" result="effect1_foregroundBlur_11_142"/>
</filter>
<filter id="filter2_f_11_142" x="0.375153" y="123.876" width="713.689" height="363.037" filterUnits="userSpaceOnUse" color-interpolation-filters="sRGB">
<feFlood flood-opacity="0" result="BackgroundImageFix"/>
<feBlend mode="normal" in="SourceGraphic" in2="BackgroundImageFix" result="shape"/>
<feGaussianBlur stdDeviation="46.0202" result="effect1_foregroundBlur_11_142"/>
</filter>
<filter id="filter3_f_11_142" x="536.691" y="221.749" width="507.654" height="412.443" filterUnits="userSpaceOnUse" color-interpolation-filters="sRGB">
<feFlood flood-opacity="0" result="BackgroundImageFix"/>
<feBlend mode="normal" in="SourceGraphic" in2="BackgroundImageFix" result="shape"/>
<feGaussianBlur stdDeviation="46.0202" result="effect1_foregroundBlur_11_142"/>
</filter>
<filter id="filter4_f_11_142" x="352.581" y="37.9557" width="603.374" height="494.472" filterUnits="userSpaceOnUse" color-interpolation-filters="sRGB">
<feFlood flood-opacity="0" result="BackgroundImageFix"/>
<feBlend mode="normal" in="SourceGraphic" in2="BackgroundImageFix" result="shape"/>
<feGaussianBlur stdDeviation="60.4015" result="effect1_foregroundBlur_11_142"/>
</filter>
</defs>
</svg>
