<svg width="101" height="114" viewBox="0 0 101 114" fill="none" xmlns="http://www.w3.org/2000/svg">
<g clip-path="url(#clip0_27_3)">
<path d="M100.5 57.0102C100.5 50.3856 92.204 44.1076 79.4849 40.2144C82.4201 27.2507 81.1156 16.9368 75.3675 13.6347C74.0426 12.8602 72.4935 12.4933 70.8017 12.4933V17.0387C71.7393 17.0387 72.4935 17.2222 73.1254 17.5687C75.8975 19.1586 77.1001 25.2124 76.1625 32.9988C75.9382 34.9148 75.5713 36.9327 75.1229 38.9914C71.1278 38.013 66.7658 37.2588 62.1796 36.7696C59.4278 32.9988 56.5742 29.5744 53.7002 26.578C60.3451 20.4019 66.5824 17.0183 70.8221 17.0183V12.4729C65.2167 12.4729 57.8787 16.468 50.4592 23.3983C43.0397 16.5087 35.7018 12.5544 30.0964 12.5544V17.0999C34.3157 17.0999 40.5734 20.4631 47.2183 26.5984C44.3647 29.5948 41.511 32.9988 38.8 36.7696C34.1934 37.2588 29.8314 38.013 25.8363 39.0118C25.3675 36.9735 25.021 34.9963 24.7764 33.1007C23.8184 25.3143 25.0006 19.2605 27.7523 17.6502C28.3638 17.2833 29.1588 17.1202 30.0964 17.1202V12.5748C28.3842 12.5748 26.8351 12.9417 25.4898 13.7162C19.7621 17.0183 18.478 27.3118 21.4335 40.2348C8.7552 44.1484 0.5 50.406 0.5 57.0102C0.5 63.6347 8.79596 69.9127 21.5151 73.8059C18.5799 86.7696 19.8844 97.0835 25.6325 100.386C26.9574 101.16 28.5065 101.527 30.2187 101.527C35.8241 101.527 43.162 97.532 50.5815 90.6017C58.001 97.4912 65.339 101.446 70.9444 101.446C72.6565 101.446 74.2057 101.079 75.551 100.304C81.2786 97.002 82.5628 86.7085 79.6072 73.7855C92.2448 69.8923 100.5 63.6143 100.5 57.0102ZM73.9611 43.4146C73.2069 46.044 72.2693 48.755 71.2093 51.4659C70.3736 49.8353 69.4971 48.2046 68.5391 46.574C67.6015 44.9433 66.6027 43.3534 65.604 41.8043C68.4984 42.2323 71.2909 42.7623 73.9611 43.4146ZM64.6256 65.1227C63.0357 67.8744 61.405 70.4835 59.7132 72.9091C56.6761 73.174 53.5982 73.3167 50.5 73.3167C47.4221 73.3167 44.3443 73.174 41.3276 72.9295C39.6358 70.5038 37.9847 67.9152 36.3948 65.1838C34.8457 62.5136 33.4393 59.8027 32.1551 57.0713C33.4189 54.34 34.8457 51.6086 36.3744 48.9384C37.9643 46.1867 39.595 43.5776 41.2868 41.152C44.3239 40.8871 47.4018 40.7444 50.5 40.7444C53.5779 40.7444 56.6557 40.8871 59.6724 41.1317C61.3642 43.5573 63.0153 46.1459 64.6052 48.8773C66.1543 51.5475 67.5607 54.2584 68.8449 56.9898C67.5607 59.7211 66.1543 62.4525 64.6256 65.1227ZM71.2093 62.4729C72.31 65.2042 73.2477 67.9356 74.0222 70.5854C71.352 71.2376 68.5391 71.788 65.6243 72.216C66.6231 70.6465 67.6219 69.0363 68.5595 67.3852C69.4972 65.7546 70.3736 64.1035 71.2093 62.4729ZM50.5408 84.2217C48.6451 82.265 46.7495 80.084 44.8742 77.6991C46.7087 77.7807 48.584 77.8418 50.4796 77.8418C52.3956 77.8418 54.2913 77.801 56.1461 77.6991C54.3117 80.084 52.416 82.265 50.5408 84.2217ZM35.3757 72.216C32.4812 71.788 29.6887 71.258 27.0185 70.6058C27.7727 67.9763 28.7104 65.2654 29.7703 62.5544C30.606 64.1851 31.4825 65.8157 32.4405 67.4464C33.3985 69.077 34.3769 70.6669 35.3757 72.216ZM50.4389 29.7986C52.3345 31.7554 54.2301 33.9364 56.1054 36.3212C54.2709 36.2397 52.3956 36.1785 50.5 36.1785C48.584 36.1785 46.6883 36.2193 44.8335 36.3212C46.668 33.9364 48.5636 31.7554 50.4389 29.7986ZM35.3553 41.8043C34.3565 43.3738 33.3577 44.9841 32.4201 46.6351C31.4825 48.2658 30.606 49.8964 29.7703 51.5271C28.6696 48.7957 27.732 46.0644 26.9574 43.4146C29.6276 42.7827 32.4405 42.2323 35.3553 41.8043ZM16.9085 67.3241C9.69283 64.2462 5.02507 60.2103 5.02507 57.0102C5.02507 53.81 9.69283 49.7537 16.9085 46.6963C18.6614 45.9421 20.5775 45.2694 22.5546 44.6376C23.7165 48.6327 25.2452 52.7908 27.1408 57.0509C25.2656 61.2906 23.7572 65.4284 22.6158 69.4032C20.5978 68.7713 18.6818 68.0783 16.9085 67.3241ZM27.8746 96.4517C25.1025 94.8618 23.8999 88.808 24.8375 81.0216C25.0618 79.1056 25.4287 77.0876 25.8771 75.0289C29.8722 76.0073 34.2342 76.7615 38.8204 77.2507C41.5722 81.0216 44.4258 84.446 47.2998 87.4423C40.6549 93.6184 34.4177 97.002 30.1779 97.002C29.2607 96.9816 28.4861 96.7982 27.8746 96.4517ZM76.2236 80.9197C77.1816 88.706 75.9994 94.7599 73.2477 96.3701C72.6362 96.737 71.8412 96.9001 70.9036 96.9001C66.6843 96.9001 60.4266 93.5369 53.7817 87.4015C56.6353 84.4052 59.489 81.0012 62.2 77.2303C66.8066 76.7411 71.1686 75.9869 75.1637 74.9882C75.6325 77.0469 75.9994 79.024 76.2236 80.9197ZM84.0711 67.3241C82.3182 68.0783 80.4022 68.7509 78.425 69.3828C77.2631 65.3877 75.7344 61.2295 73.8388 56.9694C75.714 52.7297 77.2224 48.5919 78.3638 44.6172C80.3818 45.2491 82.2978 45.9421 84.0915 46.6963C91.3072 49.7741 95.9749 53.81 95.9749 57.0102C95.9545 60.2103 91.2868 64.2666 84.0711 67.3241Z" fill="#F2FCFE" fill-opacity="0.6"/>
<path d="M50.4797 66.3253C55.6243 66.3253 59.7948 62.1548 59.7948 57.0102C59.7948 51.8656 55.6243 47.695 50.4797 47.695C45.3351 47.695 41.1646 51.8656 41.1646 57.0102C41.1646 62.1548 45.3351 66.3253 50.4797 66.3253Z" fill="#F2FCFE" fill-opacity="0.6"/>
</g>
<defs>
<clipPath id="clip0_27_3">
<rect width="100" height="113.947" fill="white" transform="translate(0.5 0.0264282)"/>
</clipPath>
</defs>
</svg>
